<svg stroke="currentColor" fill="rgba(60, 60, 67)" stroke-width="0" viewBox="0 0 24 24" height="200px" width="200px" xmlns="http://www.w3.org/2000/svg"><g id="Menu_Fries"><path d="M20.437,19.937c0.276,0 0.5,0.224 0.5,0.5c0,0.276 -0.224,0.5 -0.5,0.5l-16.874,0.002c-0.276,-0 -0.5,-0.224 -0.5,-0.5c-0,-0.276 0.224,-0.5 0.5,-0.5l16.874,-0.002Z"></path><path d="M20.437,11.5c0.276,-0 0.5,0.224 0.5,0.5c0,0.276 -0.224,0.5 -0.5,0.5l-10,0.001c-0.276,-0 -0.5,-0.224 -0.5,-0.5c-0,-0.276 0.224,-0.5 0.5,-0.5l10,-0.001Z"></path><path d="M20.437,3.062c0.276,-0 0.5,0.224 0.5,0.5c0,0.276 -0.224,0.5 -0.5,0.5l-16.874,0.001c-0.276,-0 -0.5,-0.224 -0.5,-0.5c-0,-0.276 0.224,-0.5 0.5,-0.5l16.874,-0.001Z"></path></g></svg>